<svg width="81" height="81" viewBox="0 0 81 81" fill="none" xmlns="http://www.w3.org/2000/svg">
<path d="M40.5 10.125C34.2343 10.125 28.2251 12.6141 23.7946 17.0446C19.3641 21.4751 16.875 27.4843 16.875 33.75C16.875 43.4092 22.8892 52.7276 29.4907 59.9467C32.868 63.6224 36.551 67.0051 40.5 70.0583C44.4489 67.0074 48.1319 63.627 51.5093 59.9535C58.1107 52.7276 64.125 43.4126 64.125 33.75C64.125 27.4843 61.6359 21.4751 57.2054 17.0446C52.7748 12.6141 46.7657 10.125 40.5 10.125ZM40.5 78.3473L38.5864 77.031L38.5763 77.0243L38.556 77.0074L38.4885 76.9601L38.2354 76.7812C36.8379 75.7654 35.4715 74.7074 34.1381 73.6087C30.7205 70.8013 27.5031 67.7586 24.5093 64.503C17.6108 56.9565 10.125 46.0249 10.125 33.75C10.125 25.694 13.3252 17.968 19.0216 12.2716C24.718 6.57521 32.444 3.375 40.5 3.375C48.556 3.375 56.2819 6.57521 61.9784 12.2716C67.6748 17.968 70.875 25.694 70.875 33.75C70.875 46.0249 63.3893 56.9599 56.4908 64.503C52.5821 68.7544 48.2938 72.6405 43.6793 76.113C43.2947 76.4003 42.9066 76.6827 42.5149 76.9601L42.444 77.0074L42.4237 77.0243L42.417 77.0276L40.5 78.3439V78.3473ZM43.875 21.9375V32.0625H54V38.8125H43.875V48.9375H37.125V38.8125H27V32.0625H37.125V21.9375H43.875Z" fill="#162812"/>
</svg>
