<svg width="66" height="67" viewBox="0 0 66 67" fill="none" xmlns="http://www.w3.org/2000/svg">
<rect width="66" height="67" rx="33" fill="#DBD9D2"/>
<path d="M41.5437 16.0167C41.3703 16.0486 41.1332 16.124 40.9973 16.1936C40.5204 16.4343 37.8955 18.9018 31.316 25.2923C29.2982 27.2524 28.8704 27.67 28.2084 28.3079C27.9858 28.5253 27.4539 29.0473 27.0231 29.4706C26.5953 29.8939 25.5459 30.9261 24.696 31.7612C23.8461 32.5963 22.791 33.6343 22.3545 34.0664C20.7356 35.6611 19.8713 36.5136 19.4492 36.9311C19.03 37.3428 19.0127 37.3631 18.952 37.5545C18.9173 37.6647 18.634 38.4823 18.3218 39.3754C18.0096 40.2656 17.5846 41.4776 17.3765 42.0691C17.1712 42.6577 16.8735 43.5072 16.7174 43.9538C16.5613 44.4003 16.223 45.3659 15.9658 46.0994C15.7085 46.833 15.3702 47.7986 15.2141 48.2451C15.058 48.6916 14.7198 49.6543 14.4654 50.385C14.107 51.4085 14 51.7477 14 51.8579V52H14.1445C14.2457 52 14.4018 51.9565 14.6707 51.8579C14.8817 51.7796 15.6217 51.5042 16.3127 51.2461C17.0036 50.9881 18.1628 50.5589 18.8855 50.2893C19.6082 50.0196 20.8715 49.5499 21.6896 49.2454C25.8148 47.7087 26.2253 47.5579 27.8037 46.9722C28.3934 46.7547 28.9137 46.5605 28.9629 46.5402C29.1219 46.4793 36.3518 39.7697 41.1737 35.2117C41.96 34.4665 43.2493 33.2545 44.0356 32.518C44.8219 31.7815 45.4666 31.161 45.4666 31.1407C45.4666 31.1204 45.9291 30.6478 46.4928 30.0911C49.3605 27.2582 50.696 25.823 50.9331 25.3097C51.0979 24.9589 50.9504 24.2079 50.5775 23.4975C50.1901 22.761 49.6149 21.9956 48.1868 20.3225C46.857 18.7655 45.5562 17.6666 43.9836 16.7706C42.94 16.1733 42.5468 16.0196 41.9976 16.0022C41.8241 15.9964 41.6189 16.0022 41.5437 16.0167Z" fill="white"/>
</svg>
