<svg width="285" height="34" viewBox="0 0 285 34" fill="none" xmlns="http://www.w3.org/2000/svg">
<path d="M0.625 34C0.208334 34 1.19209e-07 33.7917 1.19209e-07 33.375V1.3C1.19209e-07 0.883332 0.208334 0.674998 0.625 0.674998H18.05C18.4667 0.674998 18.675 0.883332 18.675 1.3V6.7C18.675 7.11667 18.4667 7.325 18.05 7.325H8.325V14.425H17.2C17.6167 14.425 17.825 14.6333 17.825 15.05V19.625C17.825 20.0417 17.6167 20.25 17.2 20.25H8.325V27.325H18.05C18.4667 27.325 18.675 27.5333 18.675 27.95V33.375C18.675 33.7917 18.4667 34 18.05 34H0.625ZM25.2832 34C24.8665 34 24.6582 33.7917 24.6582 33.375V6.25C24.6582 5.86667 24.7999 5.53333 25.0832 5.25L29.2332 1.075C29.5165 0.808332 29.8499 0.674998 30.2332 0.674998H35.9582C36.3415 0.674998 36.6749 0.808332 36.9582 1.075L41.1582 5.3H42.3332L46.5332 1.075C46.8165 0.808332 47.1499 0.674998 47.5332 0.674998H53.2332C53.6332 0.674998 53.9665 0.808332 54.2332 1.075L58.4082 5.25C58.6915 5.53333 58.8332 5.86667 58.8332 6.25V33.375C58.8332 33.7917 58.6249 34 58.2082 34H51.1082C50.6915 34 50.4832 33.7917 50.4832 33.375V7.325H45.9082V33.375C45.9082 33.7917 45.6999 34 45.2832 34H38.2082C37.7915 34 37.5832 33.7917 37.5832 33.375V7.325H32.9832V33.375C32.9832 33.7917 32.7749 34 32.3582 34H25.2832ZM71.2688 34C70.8854 34 70.5521 33.8583 70.2688 33.575L65.2688 28.575C64.9854 28.3083 64.8438 27.975 64.8438 27.575V7.075C64.8438 6.69167 64.9854 6.35833 65.2688 6.075L70.2688 1.075C70.5521 0.808332 70.8854 0.674998 71.2688 0.674998H81.0938C81.4938 0.674998 81.8271 0.808332 82.0938 1.075L87.0937 6.075C87.3771 6.35833 87.5188 6.69167 87.5188 7.075V27.575C87.5188 27.975 87.3771 28.3083 87.0937 28.575L82.0938 33.575C81.8271 33.8583 81.4938 34 81.0938 34H71.2688ZM74.2188 27.325H78.1438C78.8438 27.325 79.1938 26.8583 79.1938 25.925V8.75C79.1938 7.8 78.8438 7.325 78.1438 7.325H74.2188C73.5354 7.325 73.1938 7.8 73.1938 8.75V25.925C73.1938 26.8583 73.5354 27.325 74.2188 27.325ZM99.1309 34C98.7142 34 98.5059 33.7917 98.5059 33.375V7.325H94.1309C93.7142 7.325 93.5059 7.11667 93.5059 6.7V1.3C93.5059 0.883332 93.7142 0.674998 94.1309 0.674998H111.206C111.623 0.674998 111.831 0.883332 111.831 1.3V6.7C111.831 7.11667 111.623 7.325 111.206 7.325H106.831V33.375C106.831 33.7917 106.623 34 106.206 34H99.1309ZM118.447 34C118.031 34 117.822 33.7917 117.822 33.375V1.3C117.822 0.883332 118.031 0.674998 118.447 0.674998H125.522C125.939 0.674998 126.147 0.883332 126.147 1.3V33.375C126.147 33.7917 125.939 34 125.522 34H118.447ZM138.554 34C138.171 34 137.837 33.8583 137.554 33.575L132.554 28.575C132.271 28.3083 132.129 27.975 132.129 27.575V7.075C132.129 6.69167 132.271 6.35833 132.554 6.075L137.554 1.075C137.837 0.808332 138.171 0.674998 138.554 0.674998H148.379C148.779 0.674998 149.112 0.808332 149.379 1.075L154.379 6.075C154.662 6.35833 154.804 6.69167 154.804 7.075V27.575C154.804 27.975 154.662 28.3083 154.379 28.575L149.379 33.575C149.112 33.8583 148.779 34 148.379 34H138.554ZM141.504 27.325H145.429C146.129 27.325 146.479 26.8583 146.479 25.925V8.75C146.479 7.8 146.129 7.325 145.429 7.325H141.504C140.821 7.325 140.479 7.8 140.479 8.75V25.925C140.479 26.8583 140.821 27.325 141.504 27.325ZM161.416 34C160.999 34 160.791 33.7917 160.791 33.375V1.3C160.791 0.883332 160.999 0.674998 161.416 0.674998H175.616C176.016 0.674998 176.349 0.808332 176.616 1.075L181.616 6.075C181.899 6.35833 182.041 6.69167 182.041 7.075V33.375C182.041 33.7917 181.833 34 181.416 34H174.341C173.924 34 173.716 33.7917 173.716 33.375V7.325H169.116V33.375C169.116 33.7917 168.908 34 168.491 34H161.416ZM196.621 34C196.204 34 195.996 33.7917 195.996 33.375V6.25C195.996 5.86667 196.138 5.53333 196.421 5.25L200.571 1.075C200.854 0.808332 201.188 0.674998 201.571 0.674998H207.296C207.679 0.674998 208.013 0.808332 208.296 1.075L212.496 5.3H213.671L217.871 1.075C218.154 0.808332 218.488 0.674998 218.871 0.674998H224.571C224.971 0.674998 225.304 0.808332 225.571 1.075L229.746 5.25C230.029 5.53333 230.171 5.86667 230.171 6.25V33.375C230.171 33.7917 229.963 34 229.546 34H222.446C222.029 34 221.821 33.7917 221.821 33.375V7.325H217.246V33.375C217.246 33.7917 217.038 34 216.621 34H209.546C209.129 34 208.921 33.7917 208.921 33.375V7.325H204.321V33.375C204.321 33.7917 204.113 34 203.696 34H196.621ZM236.632 34C236.215 34 236.007 33.7917 236.007 33.375V10.2C236.007 9.98333 236.09 9.73333 236.257 9.45L242.182 1.05C242.365 0.799998 242.632 0.674998 242.982 0.674998H251.257C251.623 0.674998 251.89 0.799998 252.057 1.05L258.007 9.45C258.173 9.68333 258.257 9.93333 258.257 10.2V33.375C258.257 33.7917 258.048 34 257.632 34H250.557C250.14 34 249.932 33.7917 249.932 33.375V22.75H244.357V33.375C244.357 33.7917 244.148 34 243.732 34H236.632ZM247.132 17.375C248.665 17.375 249.698 17.0417 250.232 16.375C250.782 15.6917 251.057 14.4 251.057 12.5C251.057 10.6 250.782 9.31667 250.232 8.65C249.698 7.96667 248.665 7.625 247.132 7.625C245.615 7.625 244.582 7.96667 244.032 8.65C243.498 9.31667 243.232 10.6 243.232 12.5C243.232 14.4 243.498 15.6917 244.032 16.375C244.582 17.0417 245.615 17.375 247.132 17.375ZM264.736 34C264.32 34 264.111 33.7917 264.111 33.375V1.3C264.111 0.883332 264.32 0.674998 264.736 0.674998H278.561C278.961 0.674998 279.295 0.808332 279.561 1.075L284.561 6.075C284.845 6.35833 284.986 6.69167 284.986 7.075V15.7C284.986 16.1 284.845 16.4333 284.561 16.7L279.561 21.7C279.295 21.9833 278.961 22.125 278.561 22.125H272.436V33.375C272.436 33.7917 272.228 34 271.811 34H264.736ZM274.311 15.325C275.695 15.325 276.636 15.05 277.136 14.5C277.653 13.95 277.911 12.9083 277.911 11.375C277.911 9.84167 277.653 8.8 277.136 8.25C276.636 7.7 275.695 7.425 274.311 7.425C272.945 7.425 272.003 7.7 271.486 8.25C270.986 8.8 270.736 9.84167 270.736 11.375C270.736 12.9083 270.986 13.95 271.486 14.5C272.003 15.05 272.945 15.325 274.311 15.325Z" fill="#162812"/>
</svg>
