<svg width="37" height="36" viewBox="0 0 37 36" fill="none" xmlns="http://www.w3.org/2000/svg">
<path d="M27.5437 0.0167198C27.3703 0.0486147 27.1332 0.124003 26.9973 0.193592C26.5204 0.434254 23.8955 2.90176 17.316 9.29235C15.2982 11.2524 14.8704 11.67 14.2084 12.3079C13.9858 12.5253 13.4539 13.0473 13.0231 13.4706C12.5953 13.8939 11.5459 14.9261 10.696 15.7612C9.84613 16.5963 8.79098 17.6343 8.35446 18.0664C6.73561 19.6611 5.87125 20.5136 5.44919 20.9311C5.03002 21.3428 5.01268 21.3631 4.95197 21.5545C4.91728 21.6647 4.63398 22.4823 4.32177 23.3754C4.00956 24.2656 3.58461 25.4776 3.37648 26.0691C3.17123 26.6577 2.87347 27.5073 2.71737 27.9538C2.56126 28.4003 2.22304 29.3659 1.96576 30.0994C1.70847 30.833 1.37025 31.7986 1.21414 32.2451C1.05804 32.6916 0.719814 33.6543 0.465422 34.385C0.10696 35.4085 0 35.7477 0 35.8579V36H0.144541C0.24572 36 0.401824 35.9565 0.67067 35.8579C0.881699 35.7796 1.62175 35.5042 2.31265 35.2461C3.00356 34.9881 4.16278 34.5589 4.88548 34.2893C5.60819 34.0196 6.87147 33.5499 7.68958 33.2454C11.8148 31.7087 12.2253 31.5579 13.8037 30.9722C14.3934 30.7547 14.9137 30.5605 14.9629 30.5402C15.1219 30.4793 22.3518 23.7697 27.1737 19.2117C27.96 18.4665 29.2493 17.2545 30.0356 16.518C30.8219 15.7815 31.4666 15.161 31.4666 15.1407C31.4666 15.1204 31.9291 14.6478 32.4928 14.0911C35.3605 11.2582 36.696 9.82296 36.9331 9.30974C37.0979 8.9589 36.9504 8.20792 36.5775 7.49753C36.1901 6.76105 35.6149 5.99557 34.1868 4.32254C32.857 2.76548 31.5562 1.66656 29.9836 0.770603C28.94 0.173298 28.5468 0.0196212 27.9976 0.00222397C27.8241 -0.00357511 27.6189 0.00222212 27.5437 0.0167198Z" fill="white"/>
</svg>
